<svg width="66" height="35" viewBox="0 0 66 35" fill="none" xmlns="http://www.w3.org/2000/svg">
<path d="M9.15769 20.888H12.7417V23H6.42169V11.768H9.15769V20.888ZM22.7493 23.112C21.6933 23.112 20.7226 22.8667 19.8373 22.376C18.9626 21.8853 18.264 21.2027 17.7413 20.328C17.2293 19.4427 16.9733 18.4507 16.9733 17.352C16.9733 16.2533 17.2293 15.2667 17.7413 14.392C18.264 13.5173 18.9626 12.8347 19.8373 12.344C20.7226 11.8533 21.6933 11.608 22.7493 11.608C23.8053 11.608 24.7706 11.8533 25.6453 12.344C26.5306 12.8347 27.224 13.5173 27.7253 14.392C28.2373 15.2667 28.4933 16.2533 28.4933 17.352C28.4933 18.4507 28.2373 19.4427 27.7253 20.328C27.2133 21.2027 26.52 21.8853 25.6453 22.376C24.7706 22.8667 23.8053 23.112 22.7493 23.112ZM22.7493 20.616C23.6453 20.616 24.36 20.3173 24.8933 19.72C25.4373 19.1227 25.7093 18.3333 25.7093 17.352C25.7093 16.36 25.4373 15.5707 24.8933 14.984C24.36 14.3867 23.6453 14.088 22.7493 14.088C21.8426 14.088 21.1173 14.3813 20.5733 14.968C20.04 15.5547 19.7733 16.3493 19.7733 17.352C19.7733 18.344 20.04 19.1387 20.5733 19.736C21.1173 20.3227 21.8426 20.616 22.7493 20.616ZM40.8621 15.32C40.6594 14.9467 40.3661 14.664 39.9821 14.472C39.6087 14.2693 39.1661 14.168 38.6541 14.168C37.7687 14.168 37.0594 14.4613 36.5261 15.048C35.9927 15.624 35.7261 16.3973 35.7261 17.368C35.7261 18.4027 36.0034 19.2133 36.5581 19.8C37.1234 20.376 37.8967 20.664 38.8781 20.664C39.5501 20.664 40.1154 20.4933 40.5741 20.152C41.0434 19.8107 41.3847 19.32 41.5981 18.68H38.1261V16.664H44.0781V19.208C43.8754 19.8907 43.5287 20.5253 43.0381 21.112C42.5581 21.6987 41.9447 22.1733 41.1981 22.536C40.4514 22.8987 39.6087 23.08 38.6701 23.08C37.5607 23.08 36.5687 22.84 35.6941 22.36C34.8301 21.8693 34.1527 21.192 33.6621 20.328C33.1821 19.464 32.9421 18.4773 32.9421 17.368C32.9421 16.2587 33.1821 15.272 33.6621 14.408C34.1527 13.5333 34.8301 12.856 35.6941 12.376C36.5581 11.8853 37.5447 11.64 38.6541 11.64C39.9981 11.64 41.1287 11.9653 42.0461 12.616C42.9741 13.2667 43.5874 14.168 43.8861 15.32H40.8621ZM54.2962 23.112C53.2402 23.112 52.2695 22.8667 51.3842 22.376C50.5095 21.8853 49.8109 21.2027 49.2882 20.328C48.7762 19.4427 48.5202 18.4507 48.5202 17.352C48.5202 16.2533 48.7762 15.2667 49.2882 14.392C49.8109 13.5173 50.5095 12.8347 51.3842 12.344C52.2695 11.8533 53.2402 11.608 54.2962 11.608C55.3522 11.608 56.3175 11.8533 57.1922 12.344C58.0775 12.8347 58.7709 13.5173 59.2722 14.392C59.7842 15.2667 60.0402 16.2533 60.0402 17.352C60.0402 18.4507 59.7842 19.4427 59.2722 20.328C58.7602 21.2027 58.0669 21.8853 57.1922 22.376C56.3175 22.8667 55.3522 23.112 54.2962 23.112ZM54.2962 20.616C55.1922 20.616 55.9069 20.3173 56.4402 19.72C56.9842 19.1227 57.2562 18.3333 57.2562 17.352C57.2562 16.36 56.9842 15.5707 56.4402 14.984C55.9069 14.3867 55.1922 14.088 54.2962 14.088C53.3895 14.088 52.6642 14.3813 52.1202 14.968C51.5869 15.5547 51.3202 16.3493 51.3202 17.352C51.3202 18.344 51.5869 19.1387 52.1202 19.736C52.6642 20.3227 53.3895 20.616 54.2962 20.616Z" fill="#0C0D36"/>
</svg>
